PathFileType	4	(X/Y/Z)	C:\Users\WrightLab\Desktop\Jo\P4V132.trc
DataRate	CameraRate	NumFrames	NumMarkers	Units	OrigDataRate	OrigDataStartFrame	OrigNumFrames
100.00	100.00	       19	19	mm	100.00	129	       512
Frame#	Time	Headset_Front			Headset_Back			Headset_Left			Headset_Right			Left_Shoulder			Right_Shoulder			Sternum			C7			Left Elbow			Right Elbow			Left Wrist			Right Wrist			Left ASIS			Right ASIS			S2			Left Knee			Right Knee			Left Ankle			Right Ankle			
		X1	Y1	Z1	X2	Y2	Z2	X3	Y3	Z3	X4	Y4	Z4	X5	Y5	Z5	X6	Y6	Z6	X7	Y7	Z7	X8	Y8	Z8	X9	Y9	Z9	X10	Y10	Z10	X11	Y11	Z11	X12	Y12	Z12	X13	Y13	Z13	X14	Y14	Z14	X15	Y15	Z15	X16	Y16	Z16	X17	Y17	Z17	X18	Y18	Z18	X19	Y19	Z19	

129	1.280	145.88257	1086.98108	1486.50342										-42.56694	1543.82886	1403.78979	249.83154	1571.97961	1392.58777	89.47612	1496.09155	1291.17749	105.79198	1592.31702	1451.84949	-281.90146	1350.44238	1242.87402	470.66330	1284.64612	1295.77136	-329.71506	1318.69397	928.68463	508.78302	1141.18225	1031.88806	-28.05742	1042.35156	1328.68591	298.29138	1085.38599	1272.60498				57.75640	561.41675	1392.38428	323.71036	634.47400	1153.64392	183.02797	93.47473	1541.95874	367.75183	136.61996	1274.18542	
130	1.290	146.31212	1086.97852	1478.99841										-43.97622	1542.94739	1397.19031	249.39467	1570.96851	1382.67188	85.97308	1494.81104	1281.35315	106.02576	1591.26318	1442.73743	-281.33612	1345.30945	1236.72717	470.75903	1285.75818	1280.42883	-328.58057	1309.70251	923.13806	506.70639	1146.69824	1014.71832	-28.62676	1041.15820	1321.24463	296.52530	1083.58887	1262.28674				56.84406	561.22211	1388.78772	321.10504	631.71014	1145.43616	183.27293	93.56005	1541.79468	364.15799	128.06493	1241.68274	
131	1.300	147.16788	1084.68665	1467.07117										-44.27977	1540.60266	1388.20239	248.40352	1569.94055	1372.53198	86.31623	1493.75696	1273.18323	105.57820	1590.10364	1434.50574	-280.13806	1339.49658	1230.53577	471.09189	1287.38000	1265.77637	-327.48135	1300.10022	916.92395	503.74039	1152.28149	997.77319	-29.20397	1039.78491	1313.66846	295.98309	1082.76428	1251.16980				56.90546	560.28967	1384.08105	319.16525	628.78247	1137.07971	183.34219	93.65802	1541.64807	360.44699	121.09525	1208.48499	
132	1.310	147.55035	1084.75684	1458.55237										-44.79584	1538.63623	1379.87598	247.31607	1568.46216	1361.86584	83.07999	1492.62427	1263.42188	105.34463	1588.61670	1425.82458	-279.79706	1334.15381	1224.30603	470.48593	1288.84119	1251.51111	-325.64392	1291.18774	911.53784	501.40125	1158.40955	980.70477	-29.74436	1038.37915	1305.94788	294.79898	1080.34668	1241.35596				57.01837	559.44214	1379.40881	316.94681	624.53668	1130.14612	183.42178	93.77258	1541.51880	354.87564	114.88418	1176.87329	
133	1.320													-45.39809	1537.34814	1371.67944	247.03117	1567.18921	1351.71973	84.01508	1490.79004	1254.55200	105.34322	1587.17700	1416.27258	-278.92831	1328.37646	1218.06824	470.14566	1289.84424	1235.86682	-325.35513	1279.90894	905.96832	498.73685	1164.13855	963.22278	-30.45072	1036.91101	1298.16528	292.88437	1077.83276	1230.32178				56.21267	558.59479	1374.44031	315.11960	621.06458	1123.67981	183.15161	94.36832	1541.25769	348.99966	109.74920	1145.07837	
134	1.330							-48.34012	1727.07959	1322.70093	148.65128	1081.81323	1440.46655	-46.74255	1536.30835	1364.49353	246.00829	1565.85327	1340.83398	80.93978	1489.86218	1245.31641	104.60165	1585.96985	1407.54199	-278.03851	1322.55627	1211.55127	470.09937	1291.36121	1221.16211	-324.57788	1269.72278	900.15839	495.33450	1170.23853	946.53296	-30.98169	1035.30872	1290.13660	292.21445	1076.03845	1219.60999				56.00629	557.70026	1369.85315	313.61615	617.14606	1117.22119	183.26460	94.48982	1541.14417	341.31894	105.33897	1115.08276	
135	1.340							-49.66329	1725.90381	1313.49487				-47.07971	1533.51904	1355.78528	245.49788	1564.63696	1330.36438	79.78563	1487.21167	1235.57092	104.20370	1583.88977	1397.95056	-277.52835	1316.98254	1204.96362	469.24063	1293.08313	1206.45532	-323.47617	1259.50110	894.49536	492.44827	1176.40417	929.22736	-31.63281	1033.52515	1281.92786	291.35452	1073.65918	1208.59534				55.70901	556.98529	1364.99695	312.87119	612.79047	1109.93286	183.45456	94.93256	1540.80481	333.38126	102.28661	1086.85645	
136	1.350							-49.26504	1723.94690	1304.27649				-47.34892	1533.02991	1348.72449	244.27742	1562.43164	1319.93335	78.12677	1486.47668	1225.95789	104.02799	1581.93347	1387.93372	-276.76563	1311.33923	1198.43738	469.48993	1295.06519	1190.99146	-322.53888	1248.24097	888.51648	489.17209	1182.45630	911.61188	-32.26415	1031.66479	1273.58264	290.32187	1071.19861	1197.37646				55.66375	555.29431	1359.72485	312.18796	609.16962	1102.91016	182.69997	96.15029	1542.42834	324.46140	99.32388	1059.20471	
137	1.360							-50.72757	1722.26550	1295.07825				-48.53224	1530.84155	1340.16284	243.29300	1561.23010	1309.48999	75.78477	1484.03430	1216.82764	103.17472	1580.60242	1378.92480	-275.73593	1305.39893	1191.49634	469.09232	1295.73279	1175.74597	-322.11160	1235.23157	883.58105	485.77441	1188.34192	894.78107	-32.82194	1029.73645	1265.00635	288.93719	1068.43445	1186.65540				55.41283	554.43286	1354.88257	310.69827	605.29315	1096.01147	182.93491	96.63750	1542.21362	314.73572	97.47349	1033.83850	
138	1.370							-51.82170	1720.60742	1285.67883	150.79158	1073.95789	1398.58459	-49.20051	1528.75378	1331.29846	241.73718	1558.92444	1298.04675	76.10449	1482.20862	1206.62341	103.16558	1578.20007	1368.43005	-275.23206	1299.75708	1184.74158	468.47391	1298.06104	1161.61841	-320.98282	1223.72278	878.73822	482.48019	1194.72583	877.60706	-33.37822	1027.73511	1256.25342	288.03003	1066.51355	1175.27734				55.59943	553.34021	1349.23413	309.21198	601.30823	1088.08362	183.34412	97.23539	1541.97974	305.69589	96.59203	1009.86938	
139	1.380							-52.09167	1718.78162	1276.16016	151.16795	1074.70703	1391.32275	-49.67891	1526.65710	1322.32800	240.86836	1557.43091	1287.65796	73.40699	1480.51599	1197.05664	102.26688	1576.00195	1359.23462	-274.06097	1293.39734	1177.95300	468.54474	1299.83350	1145.72937	-321.27673	1211.61890	872.62769	479.28989	1200.93872	861.01392	-33.91377	1025.76379	1247.35291	286.73285	1064.31030	1164.90356				55.60246	551.81952	1343.96265	307.20831	597.96381	1080.37219	183.11528	98.26182	1541.52527	295.95444	94.77142	988.60547	
140	1.390							-53.07362	1717.13940	1266.63342				-50.25876	1524.42480	1312.96472	239.49228	1555.66785	1276.23132	69.94775	1478.28503	1187.24060	101.69458	1574.45398	1349.11719	-273.47238	1287.28845	1170.87415	466.98453	1301.86609	1129.70361	-319.34500	1200.24866	868.05914	475.48557	1207.77051	843.42395	-34.51219	1023.99170	1238.41931	285.76355	1062.22266	1154.06104				55.22120	551.34009	1338.39636	305.94937	595.49585	1071.22791	183.03084	99.93695	1540.41980	287.51624	94.13889	970.23389	
141	1.400							-54.12409	1715.25952	1257.08923				-51.83101	1522.13599	1303.80811	238.73601	1553.87292	1265.98499	70.83364	1476.11584	1177.50024	100.59376	1572.30798	1340.05164	-272.43692	1281.29724	1163.80750	466.37537	1303.49890	1115.34412	-318.93689	1188.10815	863.37708	471.98438	1214.18018	827.03345	-35.11531	1022.10461	1229.37622	284.73465	1060.12134	1143.37317				54.79345	549.92920	1332.33289	303.59039	593.29602	1060.30469	183.74286	101.11976	1539.97839	278.55289	91.66516	953.71222	
142	1.410							-55.41746	1713.55603	1247.44580	152.80634	1067.20984	1357.45544	-52.95502	1520.20752	1294.57092	237.47620	1552.16150	1255.29456	70.47165	1473.56458	1168.43311	100.26154	1570.53577	1331.29077	-271.57047	1274.83716	1156.74805	465.44098	1305.22009	1099.52014	-318.17474	1175.48352	857.53992	468.33530	1221.04700	810.54834	-35.63026	1020.40253	1220.29907	284.15677	1058.47412	1132.85962				54.18289	549.40137	1325.94189	300.76367	591.38898	1049.20898	183.91481	102.13631	1539.09656	270.43024	89.52879	940.06061	
143	1.420							-55.31991	1711.60791	1237.68176				-53.81390	1518.43335	1285.01477	235.68739	1550.48889	1243.86279	68.03378	1471.99426	1157.39966	99.60496	1568.56458	1321.35571	-271.10251	1268.93005	1149.49426	464.43369	1307.42590	1084.25342	-317.23465	1163.20630	852.33386	464.84137	1227.26599	793.85181	-36.13239	1018.82166	1211.03052	282.68530	1056.28784	1121.54688				53.20942	548.13440	1319.32605	298.22345	590.97107	1036.09326	184.47536	103.71997	1538.42334	264.08960	87.00871	929.38300	
144	1.430	72.49529	1803.16809	1306.67310				-56.61382	1710.53125	1227.77429				-54.73882	1516.26245	1275.12061	234.83061	1548.96399	1233.58899	67.24102	1470.58997	1146.69531	98.74021	1566.79797	1311.20557	-269.40015	1262.63318	1142.26953	462.80063	1309.43286	1068.97656	-315.89255	1150.85327	848.00818	460.72684	1233.94141	778.17316	-36.64488	1017.37567	1201.65820	282.28210	1055.00500	1110.87183				52.06205	547.76312	1312.23755	294.78967	590.24310	1023.25476	184.54926	105.59167	1537.55676	258.11740	84.68657	921.35718	
145	1.440	71.97811	1801.38867	1297.32019				-57.93157	1709.02588	1217.98657				-56.08216	1514.43701	1265.50928	233.29204	1547.91431	1221.92078	65.63028	1469.23779	1136.51624	97.97675	1565.25867	1301.01306	-268.23819	1256.60193	1134.82361	462.71735	1312.68433	1054.50159	-315.00006	1138.09656	843.63324	456.81210	1240.32581	762.14313	-37.23051	1015.97833	1192.10571	280.72995	1053.66199	1098.60986				50.45259	546.98560	1304.72363	292.64676	590.05475	1009.09216	184.18456	107.67571	1536.07202	253.30013	82.06080	914.82587	
146	1.450	71.09088	1799.65881	1287.84253				-59.16400	1707.72949	1208.09705				-57.03960	1512.85205	1255.28662	232.48708	1546.16370	1211.47400	64.36423	1466.85925	1127.53027	97.22304	1563.31653	1291.00452	-266.85117	1250.33875	1127.47424	459.53506	1313.39124	1039.18835	-314.07565	1125.69531	839.59424	453.00549	1247.72473	746.46143	-38.14481	1014.63562	1182.37256	279.70718	1051.95728	1087.73645				48.60893	546.34436	1297.00183	287.88107	589.20728	994.92188	183.33900	110.84665	1534.14880	250.50148	80.05138	909.94733	
147	1.460	69.51349	1797.90527	1278.52368				-59.51455	1706.51978	1198.05762				-58.28405	1511.29883	1245.49585	231.24402	1545.23975	1200.11072	63.59491	1465.95044	1117.63672	96.47605	1561.98291	1280.66223	-265.02597	1244.12817	1120.43420	459.59027	1316.67834	1024.67749	-313.79047	1112.52478	835.89624	448.92465	1254.67761	730.73669	-39.11565	1013.47260	1172.21155	277.62030	1051.54834	1075.30249				46.60112	545.20691	1288.39526	285.14011	588.42554	981.59045	182.67813	113.61285	1532.32727	247.75987	78.41838	905.60614	
